<?xml version="1.0" encoding="utf-8"?>
<!-- Generator: Adobe Illustrator 26.2.1, SVG Export Plug-In . SVG Version: 6.00 Build 0)  -->
<svg version="1.1" id="Layer_1" xmlns="http://www.w3.org/2000/svg" xmlns:xlink="http://www.w3.org/1999/xlink" x="0px" y="0px"
	 viewBox="0 0 477.7 337" style="enable-background:new 0 0 477.7 337;" xml:space="preserve">
<style type="text/css">
	.st0{fill:#FFFFFF;}
	.st1{fill-rule:evenodd;clip-rule:evenodd;fill:#FFFFFF;}
</style>
<g id="Group_68" transform="translate(-325 126)">
	<g id="Asset_2" transform="translate(325 -126)">
		<g id="Layer_1_1_" transform="translate(0 0)">
			<path id="Path_1" class="st0" d="M326.8,204.3L326.8,204.3c-9.2,0-18.4-1.3-27.3-3.7c-30.2-8.3-55.4-28-79.8-47.1
				c-6.1-4.8-12.3-9.7-18.6-14.2c-3.2-2.4-6.5-5-9.4-7.2c-7.7-6.4-16-12.1-24.7-16.9c-14.5-7.3-27-10.9-37.1-10.9
				c-9.7-0.6-18.9,4.3-23.9,12.7c-3.6,5.4-4,12.3-0.9,18c4.9,8.7,13.8,14.5,23.8,15.4c5.5,0.4,11.3,0.6,17.9,0.6
				c8.6,0,17.3-0.3,25.8-0.7l0,0l7.3-0.3c1.6,0,4.1-0.2,7.5-0.5c8-0.5,15.9,1.7,22.3,6.5l1.1,0.8l49.5,34.3H158
				c-32.8,0-77.8,0-92.7-43.6C55.6,119.2,65.2,88,89,70.1c13.6-10.5,30.4-16.3,47.6-16.3c10,0.1,19.9,1.8,29.3,5.2
				c25,9.3,48.3,22.4,69.4,38.7c6.1,4.6,12,9.6,17.8,14.4c17.6,14.8,36,30.2,58.5,35.6c5.4,1.3,10.9,2,16.5,2
				c7.7,0,18.4-1.5,25.6-8.7c9.7-9.5,12.3-24.8,5.9-35.3c-6.2-11.2-17.7-18.3-30.5-18.7c-13.2,0-25.3,7.4-37.9,23.3l-7.6,9.4
				l-1.2-12c-3.2-32.8-13.8-52.7-33.3-62.9c-7.4-4-15.7-6.1-24.1-6.1c-13.4,0-26.1,5.5-35.5,15c-3.3,3.3-7.8,5.2-12.5,5.2
				c-1.7,0-3.4-0.2-5-0.7L150.9,52l4.2-5.7C172.8,22.9,200.5,9.1,229.9,9c30.4-0.2,58.9,15.2,75.2,40.9c7.7-2.5,15.7-3.7,23.8-3.7
				c20.7,0.2,40.6,8.3,55.5,22.7c15.4,14.7,24.1,35,24.1,56.3c0,25.7-12.5,49.8-33.5,64.6C360.8,199.5,344,204.6,326.8,204.3z
				 M129.9,101.5c10.6,0,23.4,3.8,38.2,11.3c8.9,4.9,17.3,10.7,25.1,17.2c2.9,2.3,6.1,4.8,9.4,7.2c6.1,4.6,12.5,9.5,18.6,14.2
				c24.3,18.9,49.4,38.5,79,46.7c8.7,2.4,17.6,3.6,26.6,3.7c16.6,0.3,32.9-4.6,46.6-14c20.3-14.4,32.4-37.7,32.5-62.6
				c0-20.6-8.4-40.3-23.4-54.5c-14.4-13.8-33.6-21.6-53.6-21.8c-8.1,0-16.2,1.3-23.9,4l-1,0.3l-0.5-0.9
				c-15.7-25.5-43.6-41-73.6-40.8c-28.7,0-55.7,13.5-72.9,36.4l-2,2.7l17.7,5.1c1.4,0.4,2.8,0.6,4.3,0.6c4,0,7.9-1.6,10.8-4.5
				c9.8-10,23.2-15.7,37.2-15.7c8.8,0,17.5,2.2,25.3,6.3c20.4,10.6,31.5,31.2,34.8,65l0.6,5.8l3.5-4.6
				c13.2-16.5,25.9-24.2,39.9-24.2c13.7,0.4,26.1,8,32.7,20c6.9,11.6,4.2,28.1-6.3,38.5c-7.9,7.7-19.3,9.4-27.4,9.4
				c-5.7-0.1-11.4-0.8-17-2.1c-23-5.6-41.6-21.1-59.5-36.2c-5.8-4.8-11.7-9.8-17.7-14.4c-20.8-16.2-44-29.1-68.7-38.3
				c-9.1-3.3-18.7-5-28.4-5c-16.7,0-32.9,5.6-46,15.8c-22.9,17.2-32.1,47.3-22.8,74.4c14.3,41.9,58.3,41.9,90.3,41.9h94.1
				l-42.7-29.9l-1.1-0.8c-6-4.4-13.3-6.5-20.7-6l-7.6,0.4l-7.2,0.3h-0.2c-8.5,0.3-17.3,0.7-25.8,0.7c-6.7,0-12.6-0.2-18.1-0.6
				c-10.9-0.9-20.5-7.2-25.8-16.7c-3.5-6.5-3.1-14.4,1-20.5C109.3,106.3,119.3,100.9,129.9,101.5L129.9,101.5z"/>
			<path id="Path_2" class="st1" d="M403.6,125.2c-0.1,24.1-11.8,46.7-31.5,60.6c-20.7,14.5-47.4,16.6-71.3,10
				c-36.8-10.1-66.6-38.2-96.8-60.5c-11.3-8.3-22.3-18.4-34.8-24.6c-20.8-10.6-52-21.1-67.4,3.4c-12,19.2,7.1,39.3,26.6,40.8
				c17.2,0.9,34.4,0.8,51.6-0.3c1.9,0,4.8-0.2,7.7-0.4c6.8-0.5,13.6,1.5,19.1,5.5l1.2,0.8l36.6,25.6h-80.2
				c-36.4,0-80.2,1.3-94.3-40.3c-9.1-26.2-0.2-55.2,22-71.8c21.7-16.3,46.9-19.3,72.3-10.4c24.5,9.1,47.4,21.9,68,38
				c24.6,18.7,47,43.4,78.1,50.9c15,3.6,35,3.7,46.7-7.9c10.7-10.6,14.6-28.1,6.7-41.3c-7.1-12.6-20.2-20.7-34.7-21.1
				c-17.8,0-31.2,11.9-41.8,25.1c-2.6-26.7-10.6-53.7-36-66.8c-21.5-11.6-48.2-7.6-65.3,9.9c-3.3,3.3-8.1,4.4-12.6,3.1l-14.4-4.2
				C195.5,0.4,272,1.7,303,55.9C350.9,37.6,403.6,74,403.6,125.2z"/>
			<rect id="Rectangle_2" x="12.8" y="284.7" class="st0" width="451.9" height="2"/>
			<rect id="Rectangle_3" x="12.8" y="291.4" class="st0" width="451.9" height="1.7"/>
			<path id="Path_3" class="st1" d="M303.6,231.1v23.5c0,7-1.5,11.3-4.6,13.1c-3,1.8-9.4,2.5-19.9,2.5s-17.1-0.8-19.9-2.5
				s-4.6-6.1-4.6-13.1v-23.5h11.8v23.5c0,2.3,0.6,3.8,1.9,4.5c3.5,1,7.1,1.4,10.7,1.2c3.5,0.3,7-0.1,10.4-1.1
				c1.6-0.9,2.5-2.7,2.2-4.5v-23.5H303.6z"/>
			<path id="Path_4" class="st1" d="M312.2,231.1H324v28.5h26.8v9.9h-38.6V231.1z"/>
			<path id="Path_5" class="st1" d="M407.4,231.1v23.5c0,7-1.5,11.3-4.6,13.1c-3.1,1.8-9.4,2.5-19.9,2.5c-10.5,0-17.1-0.8-19.8-2.5
				c-2.8-1.6-4.6-6.1-4.6-13.1v-23.5h11.8v23.5c0,2.3,0.6,3.8,1.9,4.5c3.5,1,7.1,1.4,10.7,1.2c3.5,0.3,7.1-0.1,10.4-1.1
				c1.6-0.9,2.5-2.7,2.2-4.5v-23.5H407.4z"/>
			<path id="Path_6" class="st1" d="M416.3,241v-10h45.8v10h-16.9v28.5h-11.8V241H416.3z"/>
			<path id="Path_7" class="st1" d="M201.8,233.1H228c1-0.1,2,0.2,2.8,0.7c1.3,1.4,1.3,3.6,0,4.9c-0.8,0.6-1.8,0.8-2.7,0.8h-26.2
				V233.1z M187.1,221.5v48h44.6c4,0.3,8-0.7,11.3-3.1c2.6-2.8,3.8-6.5,3.4-10.3c0.5-4.8-2.2-9.3-6.5-11.3c1.5-0.8,2.7-2,3.5-3.5
				c1-1.9,1.4-4,1.4-6.1c0-5.7-1.6-9.5-4.7-11.5c-3.1-1.6-6.6-2.3-10.1-2L187.1,221.5z M201.8,250.3h25.6c1.1,0,2.2,0.2,3.1,0.8
				c0.8,0.8,1.2,1.9,1.1,3.1c0,2.4-1.4,3.6-4.3,3.6h-25.4V250.3z"/>
			<path id="Path_8" class="st1" d="M95.1,231.1h11.8v13.4h6.2l13.4-13.4h16.3l-19.2,18.3l21.7,20.1h-17.2l-15-15h-6.2v15H95.1
				V231.1z"/>
			<path id="Path_9" class="st1" d="M52.9,232.4h-2.3l-8,16.7h18.2L52.9,232.4z M39.1,221.6h25.4l23.8,47.9H71.1l-4.5-8H37.3l-4.6,8
				H15.4L39.1,221.6z"/>
			<path id="Path_10" class="st1" d="M12.8,306.5h5v7.5h10.7v-7.5h4.9v21.1h-4.9V320H17.8v7.6h-5V306.5z M53.5,306.2
				c2.3-0.1,4.6,0,6.9,0.3c1.8,0.3,3.1,1.7,3.3,3.5c0.5,4.7,0.5,9.3,0,14c-0.2,1.8-1.6,3.2-3.3,3.5c-2.3,0.3-4.6,0.4-6.8,0.3
				c-2.3,0.1-4.7-0.1-7-0.3c-1.7-0.4-3-1.8-3.2-3.5c-0.3-2.4-0.5-4.7-0.4-7.1c-0.1-2.3,0.1-4.6,0.4-6.9c0.2-1.8,1.5-3.2,3.3-3.5
				c2.3-0.3,4.6-0.4,6.9-0.3L53.5,306.2z M53.5,311.7c-1.5-0.1-3,0-4.5,0.3c-0.6,0.2-1,0.8-1.1,1.4c-0.2,1.4-0.3,2.8-0.3,4.3
				c-0.1,0.9-0.1,1.9,0,2.8c0.1,0.9,0.8,1.7,1.7,1.8c1.4,0.2,2.7,0.2,4.1,0.2h3.8c0.5-0.1,1-0.3,1.4-0.6c0.3-0.4,0.5-0.8,0.6-1.3
				c0.1-0.9,0.2-1.8,0.2-2.8c0-1.5,0-2.6,0-3.3c0-0.6-0.2-1.1-0.4-1.6c-0.2-0.5-0.7-0.8-1.2-0.8c-1.4-0.2-2.8-0.2-4.1-0.2
				L53.5,311.7z M84.2,306.5h5V319c0,1.5-0.1,2.9-0.2,4.4c-0.1,0.8-0.4,1.6-0.8,2.3c-0.5,0.8-1.3,1.4-2.2,1.6
				c-1.5,0.4-3.1,0.5-4.7,0.5c-1.9,0.1-3.8-0.1-5.7-0.6c-1.5-0.5-2.5-1.9-2.5-3.5c-0.1-1-0.2-2-0.2-3.1c0-0.6,0-1.3,0-2.2h4.7v2.3
				c0,0.3,0.1,0.6,0.3,0.9c0.4,0.5,1.4,0.7,3.1,0.7c1.1,0.1,2.2-0.1,3.1-0.7c0.2-0.2,0.3-0.5,0.3-0.8c0-0.6,0-1.3,0-1.9v-12.5
				L84.2,306.5z M115.3,327.6l-1.2-3.6h-10.1l-1.4,3.6h-5.4l8.2-21h7.3l8.1,21.1L115.3,327.6z M112.2,319.4l-3.1-8h-0.9l-3.1,8
				H112.2z M129.4,306.5h5v15.6h11v5.4h-16L129.4,306.5z M149.2,306.5h6.1l5,8.4l4.8-8.4h6.1l-8.5,13.6v7.5h-4.9v-7.5l-8.9-13.6
				L149.2,306.5z M179.9,306.5h4.7v7.6h2.6l6.1-7.8h7.2l-8.9,10.5l9.7,10.7h-7.4l-6.9-8h-2.6v8h-4.8v-21.1L179.9,306.5z
				 M242.5,306.5h4.7V319c0,1.5,0,2.9-0.2,4.4c-0.1,0.8-0.4,1.6-0.8,2.3c-0.5,0.8-1.3,1.4-2.2,1.6c-1.5,0.4-3.1,0.5-4.7,0.5
				c-1.9,0.1-3.8-0.1-5.7-0.6c-1.5-0.5-2.5-1.9-2.5-3.5c-0.1-1-0.2-2-0.2-3.1v-2.2h4.5c0,0.8,0,1.5,0,2.3c0,0.3,0.1,0.6,0.3,0.9
				c0.4,0.5,1.3,0.7,2.9,0.7c1.1,0.1,2.2-0.1,3.1-0.7c0.2-0.2,0.3-0.5,0.3-0.8c0-0.6,0-1.3,0-1.9v-12.5L242.5,306.5z M257,306.5
				h17.2v4.9h-12.7v3.1h11.9v4.5h-11.9v3.4H274v5.1h-17.4v-20.9L257,306.5z M283.4,306.5h8.6l4.6,13.7l4.6-13.7h8.5v21.1h-4.9v-15.8
				H304l-5.7,15.8h-3.9l-5.9-15.8h-0.8v15.8h-4.5v-21.1L283.4,306.5z M329,315.7h10.8v0.6c0.1,2.2,0,4.5-0.2,6.7
				c0.1,2-1.1,3.8-3.1,4.4c-0.9,0.2-1.8,0.4-2.7,0.5h-4.7c-1.9,0-3.8-0.1-5.6-0.3c-1-0.1-1.9-0.5-2.6-1.2c-0.4-0.4-0.8-1-1-1.5
				c-0.2-0.8-0.4-1.7-0.5-2.5v-10c0.1-0.9,0.2-1.8,0.4-2.6c0.3-1.5,1.4-2.7,2.9-3.1c2.4-0.4,4.9-0.6,7.3-0.6c1.5,0,3.1,0,4.6,0.2
				c1,0.1,1.9,0.3,2.8,0.7c1.3,0.6,2.1,1.9,2.1,3.3c0.1,1.2,0.2,2.3,0.2,3.5h-5c0-0.4,0-0.8,0-1.2c0-0.2-0.1-0.4-0.3-0.5
				c-0.5-0.3-1.1-0.5-1.7-0.5h-3.5c-1.2-0.1-2.3-0.1-3.5,0c-0.5,0-1,0.2-1.4,0.6c-0.3,0.4-0.5,0.9-0.6,1.4v7.1
				c0,0.5,0.2,1.1,0.6,1.5c0.2,0.3,0.6,0.5,1,0.5h7.8c0.4,0,0.8-0.1,1.1-0.3c0.2-0.2,0.4-0.4,0.5-0.7c0.1-0.5,0.1-0.9,0-1.4v-0.6
				h-6.1v-4L329,315.7z M347.4,306.5h6.1l5,8.4l4.8-8.4h6.1l-8.5,13.6v7.5h-4.9v-7.5l-8.9-13.6L347.4,306.5z M376.4,306.5h6.1
				l5.1,8.4l4.8-8.4h6.1l-8.5,13.6v7.5h-4.9v-7.5L376.4,306.5L376.4,306.5z M391.1,297l1.8,4.9l-6.6,3.1l-1-2.5L391.1,297L391.1,297
				z M407,306.5h17.1v4.9h-12.5v3.1h11.9v4.5h-11.9v3.4h12.5v5.1h-17.3v-20.9L407,306.5z M432.3,306.5h18.8v5.4h-6.9v15.7h-5v-15.7
				h-6.9V306.5z M459.9,306.5h4.9v21.1h-4.9V306.5z"/>
			<path id="Path_11" class="st1" d="M303.6,231.1v23.5c0,7-1.5,11.3-4.6,13.1c-3,1.8-9.4,2.5-19.9,2.5s-17.1-0.8-19.9-2.5
				s-4.6-6.1-4.6-13.1v-23.5h11.8v23.5c0,2.3,0.6,3.8,1.9,4.5c3.5,1,7.1,1.4,10.7,1.2c3.5,0.3,7-0.1,10.4-1.1
				c1.6-0.9,2.5-2.7,2.2-4.5v-23.5H303.6z"/>
			<path id="Path_12" class="st1" d="M312.2,231.1H324v28.5h26.8v9.9h-38.6V231.1z"/>
			<path id="Path_13" class="st1" d="M407.4,231.1v23.5c0,7-1.5,11.3-4.6,13.1c-3.1,1.8-9.4,2.5-19.9,2.5c-10.5,0-17.1-0.8-19.8-2.5
				c-2.8-1.6-4.6-6.1-4.6-13.1v-23.5h11.8v23.5c0,2.3,0.6,3.8,1.9,4.5c3.5,1,7.1,1.4,10.7,1.2c3.5,0.3,7.1-0.1,10.4-1.1
				c1.6-0.9,2.5-2.7,2.2-4.5v-23.5H407.4z"/>
			<path id="Path_14" class="st1" d="M416.3,241v-10h45.8v10h-16.9v28.5h-11.8V241H416.3z"/>
			<path id="Path_15" class="st1" d="M201.8,233.1H228c1-0.1,2,0.2,2.8,0.7c1.3,1.4,1.3,3.6,0,4.9c-0.8,0.6-1.8,0.8-2.7,0.8h-26.2
				V233.1z M187.1,221.5v48h44.6c4,0.3,8-0.7,11.3-3.1c2.6-2.8,3.8-6.5,3.4-10.3c0.5-4.8-2.2-9.3-6.5-11.3c1.5-0.8,2.7-2,3.5-3.5
				c1-1.9,1.4-4,1.4-6.1c0-5.7-1.6-9.5-4.7-11.5c-3.1-1.6-6.6-2.3-10.1-2L187.1,221.5z M201.8,250.3h25.6c1.1,0,2.2,0.2,3.1,0.8
				c0.8,0.8,1.2,1.9,1.1,3.1c0,2.4-1.4,3.6-4.3,3.6h-25.4V250.3z"/>
			<path id="Path_16" class="st1" d="M95.1,231.1h11.8v13.4h6.2l13.4-13.4h16.3l-19.2,18.3l21.7,20.1h-17.2l-15-15h-6.2v15H95.1
				V231.1z"/>
			<path id="Path_17" class="st1" d="M52.9,232.4h-2.3l-8,16.7h18.2L52.9,232.4z M39.1,221.6h25.4l23.8,47.9H71.1l-4.5-8H37.3
				l-4.6,8H15.4L39.1,221.6z"/>
		</g>
	</g>
</g>
</svg>
